<mxfile host="app.diagrams.net" modified="2023-10-15T16:40:15.019Z" agent="Mozilla/5.0 (Windows NT 10.0; Win64; x64) AppleWebKit/537.36 (KHTML, like Gecko) Chrome/117.0.0.0 Safari/537.36" etag="x7YoyivXii5-kXebI43E" version="22.0.4" type="google">
  <diagram name="Page-1" id="03018318-947c-dd8e-b7a3-06fadd420f32">
    <mxGraphModel grid="1" page="1" gridSize="10" guides="1" tooltips="1" connect="1" arrows="1" fold="1" pageScale="1" pageWidth="1100" pageHeight="850" background="none" math="0" shadow="0">
      <root>
        <mxCell id="0" />
        <mxCell id="1" parent="0" />
        <mxCell id="qYC7P0EI7lyvb2j1Zvjj-5" value="" style="group" connectable="0" vertex="1" parent="1">
          <mxGeometry x="30" y="224" width="1050" height="510" as="geometry" />
        </mxCell>
        <mxCell id="677b7b8949515195-1" value="" style="whiteSpace=wrap;html=1;rounded=0;shadow=0;labelBackgroundColor=none;strokeColor=#000000;strokeWidth=1;fillColor=none;fontFamily=Verdana;fontSize=12;fontColor=#000000;align=center;comic=1;" vertex="1" parent="qYC7P0EI7lyvb2j1Zvjj-5">
          <mxGeometry x="-10" y="-200" width="1060" height="660" as="geometry" />
        </mxCell>
        <mxCell id="677b7b8949515195-16" value="" style="verticalLabelPosition=bottom;shadow=0;dashed=0;align=center;html=1;verticalAlign=top;strokeWidth=1;shape=mxgraph.mockup.graphics.simpleIcon;strokeColor=#999999;rounded=0;labelBackgroundColor=none;fontFamily=Verdana;fontSize=14;fontColor=#000000;comic=1;" vertex="1" parent="qYC7P0EI7lyvb2j1Zvjj-5">
          <mxGeometry x="590" y="-108" width="430" height="342.5" as="geometry" />
        </mxCell>
        <mxCell id="qYC7P0EI7lyvb2j1Zvjj-3" value="&lt;font style=&quot;font-size: 22px;&quot;&gt;Join &amp;lt;website&amp;gt;&lt;/font&gt;" style="whiteSpace=wrap;html=1;rounded=0;shadow=0;labelBackgroundColor=none;strokeWidth=1;fontFamily=Verdana;fontSize=28;align=center;comic=1;verticalAlign=middle;" vertex="1" parent="qYC7P0EI7lyvb2j1Zvjj-5">
          <mxGeometry x="60" y="80" width="190" height="33" as="geometry" />
        </mxCell>
        <mxCell id="IgBskjyFUGVjYucHrxcE-3" value="&lt;h1&gt;Lorem Ipsum&lt;/h1&gt;&lt;p&gt;Lorem ipsum dolor sit amet, consectetur adipisicing elit, sed do eiusmod tempor incididunt ut labore et dolore magna aliqua.&lt;/p&gt;" style="text;html=1;strokeColor=none;fillColor=none;spacing=5;spacingTop=-20;whiteSpace=wrap;overflow=hidden;rounded=0;" vertex="1" parent="qYC7P0EI7lyvb2j1Zvjj-5">
          <mxGeometry x="60" y="-30" width="410" height="120" as="geometry" />
        </mxCell>
        <mxCell id="qYC7P0EI7lyvb2j1Zvjj-28" value="&lt;div style=&quot;text-align: justify&quot;&gt;&lt;br&gt;&lt;/div&gt;" style="whiteSpace=wrap;html=1;rounded=0;shadow=0;labelBackgroundColor=none;strokeWidth=1;fontFamily=Verdana;fontSize=12;align=center;verticalAlign=top;spacing=10;comic=1;" vertex="1" parent="qYC7P0EI7lyvb2j1Zvjj-5">
          <mxGeometry y="286" width="1040" height="160" as="geometry" />
        </mxCell>
        <mxCell id="8phkjEfu20HQz3NuUWRH-15" value="&lt;font face=&quot;Arial&quot; style=&quot;font-size: 22px;&quot;&gt;&lt;u style=&quot;&quot;&gt;About us&lt;/u&gt;&lt;/font&gt;" style="text;html=1;points=[];align=center;verticalAlign=top;spacingTop=-4;fontSize=19;fontFamily=Verdana" vertex="1" parent="qYC7P0EI7lyvb2j1Zvjj-5">
          <mxGeometry x="70" y="308" width="170" height="20" as="geometry" />
        </mxCell>
        <mxCell id="8phkjEfu20HQz3NuUWRH-14" value="&lt;font face=&quot;Arial&quot; style=&quot;font-size: 22px;&quot;&gt;&lt;u style=&quot;&quot;&gt;Site map&lt;/u&gt;&lt;/font&gt;" style="text;html=1;points=[];align=center;verticalAlign=top;spacingTop=-4;fontSize=19;fontFamily=Verdana" vertex="1" parent="qYC7P0EI7lyvb2j1Zvjj-5">
          <mxGeometry x="70" y="346" width="170" height="20" as="geometry" />
        </mxCell>
        <mxCell id="qYC7P0EI7lyvb2j1Zvjj-29" value="&lt;font face=&quot;Arial&quot;&gt;Â© 2023 &amp;lt;website&amp;gt;&lt;/font&gt;" style="text;html=1;points=[];align=center;verticalAlign=top;spacingTop=-4;fontSize=19;fontFamily=Verdana" vertex="1" parent="qYC7P0EI7lyvb2j1Zvjj-5">
          <mxGeometry x="90" y="407" width="170" height="20" as="geometry" />
        </mxCell>
        <mxCell id="qYC7P0EI7lyvb2j1Zvjj-2" value="" style="whiteSpace=wrap;html=1;rounded=0;shadow=0;labelBackgroundColor=none;strokeWidth=1;fillColor=none;fontFamily=Verdana;fontSize=12;align=center;comic=1;" vertex="1" parent="1">
          <mxGeometry x="31" y="106" width="560" height="360" as="geometry" />
        </mxCell>
        <mxCell id="677b7b8949515195-10" value="" style="whiteSpace=wrap;html=1;rounded=0;shadow=0;labelBackgroundColor=none;strokeWidth=1;fillColor=none;fontFamily=Verdana;fontSize=12;align=center;comic=1;" vertex="1" parent="1">
          <mxGeometry x="30" y="40" width="1040" height="50" as="geometry" />
        </mxCell>
        <mxCell id="677b7b8949515195-12" value="&lt;font style=&quot;font-size: 16px;&quot;&gt;&lt;b&gt;Log in | Sign up&lt;/b&gt;&lt;/font&gt;" style="text;html=1;points=[];align=left;verticalAlign=top;spacingTop=-4;fontSize=14;fontFamily=Verdana" vertex="1" parent="1">
          <mxGeometry x="910" y="55" width="170" height="20" as="geometry" />
        </mxCell>
        <mxCell id="8phkjEfu20HQz3NuUWRH-20" value="&lt;font face=&quot;Comic Sans MS&quot;&gt;&lt;font style=&quot;font-size: 22px;&quot;&gt;&lt;br&gt;&lt;/font&gt;&lt;/font&gt;" style="text;html=1;points=[];align=left;verticalAlign=top;spacingTop=-4;fontSize=19;fontFamily=Verdana" vertex="1" parent="1">
          <mxGeometry x="701" y="520" width="62.12" height="33" as="geometry" />
        </mxCell>
        <mxCell id="IgBskjyFUGVjYucHrxcE-1" value="LOGO" style="whiteSpace=wrap;html=1;rounded=0;shadow=0;labelBackgroundColor=none;strokeWidth=1;fontFamily=Verdana;fontSize=28;align=center;comic=1;" vertex="1" parent="1">
          <mxGeometry x="38" y="47" width="112" height="35" as="geometry" />
        </mxCell>
        <mxCell id="uolhSoKgi2GoK-N1cPbn-2" value="" style="rounded=0;whiteSpace=wrap;html=1;fillColor=#B3B3B3;opacity=50;" vertex="1" parent="1">
          <mxGeometry x="16" y="23" width="1060" height="662" as="geometry" />
        </mxCell>
        <mxCell id="uolhSoKgi2GoK-N1cPbn-1" value="" style="rounded=0;whiteSpace=wrap;html=1;" vertex="1" parent="1">
          <mxGeometry x="300" y="34" width="510" height="640" as="geometry" />
        </mxCell>
        <mxCell id="uolhSoKgi2GoK-N1cPbn-4" value="LOGO" style="whiteSpace=wrap;html=1;rounded=0;shadow=0;labelBackgroundColor=none;strokeWidth=1;fontFamily=Verdana;fontSize=28;align=center;comic=1;" vertex="1" parent="1">
          <mxGeometry x="494" y="82" width="112" height="35" as="geometry" />
        </mxCell>
        <mxCell id="uolhSoKgi2GoK-N1cPbn-7" value="" style="shape=mxgraph.sysml.x;strokeWidth=4;strokeColor=#7D7D7D;aspect=fixed;" vertex="1" parent="1">
          <mxGeometry x="759" y="53" width="31.496" height="31.5" as="geometry" />
        </mxCell>
        <mxCell id="uolhSoKgi2GoK-N1cPbn-9" value="&lt;font size=&quot;1&quot; style=&quot;&quot;&gt;&lt;b style=&quot;font-size: 35px;&quot;&gt;Log in&lt;/b&gt;&lt;/font&gt;" style="text;html=1;strokeColor=none;fillColor=none;align=center;verticalAlign=middle;whiteSpace=wrap;rounded=0;" vertex="1" parent="1">
          <mxGeometry x="475" y="140" width="150" height="30" as="geometry" />
        </mxCell>
        <mxCell id="uolhSoKgi2GoK-N1cPbn-10" value="&lt;h1&gt;&lt;span style=&quot;font-weight: normal;&quot;&gt;&lt;font color=&quot;#737373&quot;&gt;Enter username or email&lt;/font&gt;&lt;/span&gt;&lt;/h1&gt;" style="text;html=1;strokeColor=default;fillColor=none;spacing=5;spacingTop=-20;whiteSpace=wrap;overflow=hidden;rounded=0;align=left;verticalAlign=top;fontStyle=0;labelPosition=center;verticalLabelPosition=middle;" vertex="1" parent="1">
          <mxGeometry x="403" y="250" width="295" height="39" as="geometry" />
        </mxCell>
        <mxCell id="uolhSoKgi2GoK-N1cPbn-11" value="&lt;font style=&quot;font-size: 24px;&quot;&gt;Username&lt;/font&gt;" style="text;html=1;strokeColor=none;fillColor=none;align=center;verticalAlign=middle;whiteSpace=wrap;rounded=0;" vertex="1" parent="1">
          <mxGeometry x="430" y="210" width="60" height="30" as="geometry" />
        </mxCell>
        <mxCell id="uolhSoKgi2GoK-N1cPbn-12" value="&lt;h1&gt;&lt;span style=&quot;font-weight: normal;&quot;&gt;&lt;font color=&quot;#737373&quot;&gt;Enter password&lt;/font&gt;&lt;/span&gt;&lt;/h1&gt;" style="text;html=1;strokeColor=default;fillColor=none;spacing=5;spacingTop=-20;whiteSpace=wrap;overflow=hidden;rounded=0;align=left;verticalAlign=top;fontStyle=0;labelPosition=center;verticalLabelPosition=middle;" vertex="1" parent="1">
          <mxGeometry x="403" y="370" width="295" height="39" as="geometry" />
        </mxCell>
        <mxCell id="uolhSoKgi2GoK-N1cPbn-13" value="&lt;font style=&quot;font-size: 24px;&quot;&gt;Password&lt;/font&gt;" style="text;html=1;strokeColor=none;fillColor=none;align=center;verticalAlign=middle;whiteSpace=wrap;rounded=0;" vertex="1" parent="1">
          <mxGeometry x="430" y="330" width="60" height="30" as="geometry" />
        </mxCell>
        <mxCell id="uolhSoKgi2GoK-N1cPbn-14" value="&lt;font style=&quot;font-size: 28px;&quot;&gt;Log in&lt;/font&gt;" style="rounded=1;whiteSpace=wrap;html=1;verticalAlign=bottom;" vertex="1" parent="1">
          <mxGeometry x="402" y="466" width="297" height="40" as="geometry" />
        </mxCell>
      </root>
    </mxGraphModel>
  </diagram>
</mxfile>
